<?xml version="1.0" standalone="no"?>
<!DOCTYPE svg PUBLIC "-//W3C//DTD SVG 1.1//EN" "http://www.w3.org/Graphics/SVG/1.1/DTD/svg11.dtd" >
<svg xmlns="http://www.w3.org/2000/svg" xmlns:xlink="http://www.w3.org/1999/xlink" version="1.1">
<metadata></metadata>
<defs>
<font id="avertasemibold_italic" horiz-adv-x="787" >
<font-face units-per-em="2048" ascent="1581" descent="-467" />
<missing-glyph horiz-adv-x="415" />
<glyph horiz-adv-x="0" />
<glyph horiz-adv-x="682" />
<glyph unicode=" "  horiz-adv-x="415" />
<glyph unicode="&#x09;" horiz-adv-x="415" />
<glyph unicode="&#xa0;" horiz-adv-x="415" />
<glyph unicode="!" horiz-adv-x="561" d="M110 130q0 43 20 78t55 55t78 20q62 0 104 -42t42 -106q0 -42 -19.5 -77t-54.5 -54.5t-78 -19.5q-63 0 -105 42t-42 104zM204 457l86 1051h249l-171 -1051h-164z" />
<glyph unicode="&#x22;" horiz-adv-x="772" d="M122 938l121 517h240l-182 -517h-179zM460 938l121 517h240l-182 -517h-179z" />
<glyph unicode="#" horiz-adv-x="1211" d="M57 317l21 169h226l77 303h-220l20 169h248l98 385h157l-98 -385h260l99 385h156l-98 -385h205l-21 -169h-232l-77 -303h226l-22 -169h-253l-101 -399h-158l103 399h-260l-102 -399h-159l104 399h-199zM460 486h262l75 303h-259z" />
<glyph unicode="$" horiz-adv-x="1101" d="M75 219l174 159q38 -83 111.5 -128.5t158.5 -45.5q100 0 166.5 52.5t65.5 129.5q0 22 -8 40.5t-19.5 31.5t-35 29.5t-43 27.5t-57 32t-64.5 37q-13 8 -40 23q-29 17 -43.5 26t-42 26t-42.5 28t-38 29t-36 33t-30 35.5t-26.5 40.5t-19 43.5t-13.5 50t-4 55.5q0 109 52 196 t139.5 136.5t196.5 60.5l31 253h193l-33 -269q164 -47 265 -183l-170 -149q-91 136 -246 136q-78 0 -130 -44.5t-50 -109.5q1 -16 6 -31t11 -26.5t22 -26.5t25.5 -23.5t36.5 -26t40.5 -26t50.5 -30.5q26 -16 65.5 -38t66.5 -37t61.5 -37.5t57.5 -41.5t47 -45.5t38.5 -54.5 t23.5 -63.5t9 -76.5q0 -64 -14 -121t-39.5 -101.5t-61.5 -81t-80.5 -62t-95.5 -41t-107 -21.5l-28 -238h-193l29 247q-107 22 -194 79.5t-139 141.5z" />
<glyph unicode="%" horiz-adv-x="2065" d="M167 1032q0 122 55.5 222t151.5 156t211 56q107 0 192.5 -46t135 -131.5t49.5 -194.5q0 -96 -33.5 -178.5t-90 -139t-134 -88.5t-164.5 -32q-161 0 -267 105.5t-106 270.5zM360 1034q0 -90 53 -146.5t134 -56.5q93 0 157.5 70.5t64.5 186.5q0 91 -53.5 147t-136.5 56 q-91 0 -155 -72.5t-64 -184.5zM588 38l756 1450l179 -83l-757 -1449zM1157 360q0 122 55.5 221.5t151.5 156t211 56.5q107 0 193 -46.5t135.5 -131.5t49.5 -194q0 -77 -21.5 -146t-60.5 -121.5t-91.5 -91.5t-116.5 -59t-133 -20q-161 0 -267 105.5t-106 270.5zM1350 362 q0 -90 53 -146.5t134 -56.5q94 0 158.5 70t64.5 187q0 45 -14.5 83t-40 64.5t-60.5 41t-76 14.5q-90 0 -154.5 -73t-64.5 -184z" />
<glyph unicode="&#x26;" horiz-adv-x="1518" d="M95 367q0 93 32.5 179t99.5 158.5t161 115.5q-101 93 -101 221q0 95 35.5 176.5t95 136.5t138 86t164.5 31q64 0 118 -12.5t93 -35t69 -50t51 -62t34 -65t22 -64.5l-204 -65q-4 24 -12 44.5t-21.5 40.5t-31.5 34.5t-44 23.5t-58 9q-100 1 -158 -57t-58 -163 q0 -37 14.5 -69t49 -53.5t83.5 -21.5h844l-24 -201h-313q-15 -125 -50.5 -232.5t-94 -198t-137 -154.5t-183 -99.5t-227.5 -35.5q-170 0 -278.5 105.5t-108.5 277.5zM339 389q0 -87 48 -138.5t129 -51.5q75 0 141 29t115.5 77.5t88 114t62 137t34.5 147.5h-295 q-72 0 -134.5 -29.5t-102.5 -75.5t-63 -101t-23 -109z" />
<glyph unicode="'" horiz-adv-x="433" d="M122 938l121 517h240l-182 -517h-179z" />
<glyph unicode="(" horiz-adv-x="610" d="M114 327q0 -366 124 -646l184 85q-97 280 -97 592q0 286 79 573t224 521l-156 70q-86 -118 -153.5 -261t-112.5 -296.5t-68.5 -315.5t-23.5 -322z" />
<glyph unicode=")" horiz-adv-x="611" d="M10 -242l157 -69q175 253 265.5 559t90.5 633q0 380 -129 649l-182 -86q98 -266 98 -591q0 -280 -78 -566.5t-222 -528.5z" />
<glyph unicode="*" horiz-adv-x="792" d="M164 1022l177 100l-155 104l88 125l145 -119l21 223h145l-37 -223l172 117l61 -123l-179 -102l156 -102l-88 -125l-143 118l-23 -223h-146l37 223l-171 -118z" />
<glyph unicode="+" horiz-adv-x="1100" d="M108 464l25 206h333l47 381h207l-46 -381h334l-26 -206h-334l-46 -379h-207l46 379h-333z" />
<glyph unicode="," horiz-adv-x="482" d="M-35 -270l121 516h238l-193 -516h-166z" />
<glyph unicode="-" d="M117 523l27 219h559l-28 -219h-558z" />
<glyph unicode="." horiz-adv-x="555" d="M83 130q0 66 44 109.5t109 43.5q62 0 104 -42t42 -106q0 -65 -43.5 -108t-108.5 -43q-63 0 -105 42t-42 104z" />
<glyph unicode="/" horiz-adv-x="778" d="M-150 -146l917 1747l155 -83l-915 -1747z" />
<glyph unicode="0" horiz-adv-x="1212" d="M127 529q0 97 12 191.5t37 183t61 166.5t85.5 142.5t108.5 111t133 72.5t156 26q199 0 307 -139t108 -405q0 -139 -24 -269.5t-73 -244t-117.5 -198.5t-164 -133.5t-206.5 -48.5q-198 0 -310.5 140.5t-112.5 404.5zM363 516q0 -155 49 -235.5t141 -80.5q51 0 95.5 21.5 t79 60t63.5 91t48.5 113.5t33 129.5t20 137.5t6.5 138q0 158 -47.5 236.5t-146.5 78.5q-70 0 -128.5 -42.5t-97 -112t-65.5 -160.5t-39 -185.5t-12 -189.5z" />
<glyph unicode="1" horiz-adv-x="789" d="M113 1109l419 297h184l-173 -1406h-233l135 1094l-222 -165z" />
<glyph unicode="2" horiz-adv-x="1024" d="M30 0l16 155l450 480q43 46 69 75t62.5 76t56.5 84t35 84t15 91q0 69 -37.5 114.5t-103.5 45.5q-45 0 -92 -18.5t-92.5 -58.5t-76.5 -96l-170 126q64 116 187.5 189.5t262.5 73.5q75 0 140 -25t113.5 -70t76.5 -113.5t28 -150.5q0 -139 -72.5 -269t-205.5 -268l-296 -306 v-7h488l-27 -212h-827z" />
<glyph unicode="3" horiz-adv-x="1055" d="M37 295l227 81q29 -175 180 -175q114 0 182.5 73t68.5 189q0 78 -43.5 120.5t-145.5 42.5h-103l25 198h87q55 0 100 23t72 59.5t41.5 77.5t14.5 80q0 65 -39 103.5t-104 38.5q-140 0 -223 -135l-192 108q59 109 174 176t255 67q104 0 184.5 -35t129 -108t48.5 -175 q0 -124 -55 -221t-153 -151v-4q79 -40 121.5 -113.5t42.5 -177.5q0 -134 -63 -238t-171.5 -159.5t-245.5 -55.5q-168 0 -275.5 85.5t-139.5 225.5z" />
<glyph unicode="4" horiz-adv-x="1096" d="M35 238l18 159l705 1009h189l-118 -961h185l-26 -207h-185l-29 -238h-232l29 238h-536zM334 439h277l66 516z" />
<glyph unicode="5" horiz-adv-x="1080" d="M45 225l194 127q22 -49 52.5 -82.5t71 -52t88.5 -18.5q123 0 202.5 89t79.5 221q0 93 -47.5 143t-138.5 50q-106 0 -216 -78l-134 47l130 735h692l-27 -212h-483l-54 -320q103 28 174 28q157 0 248.5 -100t91.5 -273q0 -118 -39 -219.5t-107 -173t-163 -112.5t-205 -41 q-140 0 -243.5 62t-166.5 180z" />
<glyph unicode="6" horiz-adv-x="1130" d="M109 427q0 175 55.5 340.5t155.5 301.5t247.5 237.5t323.5 147.5l45 -200q-412 -149 -539 -465l3 -2q136 109 312 109q59 0 114 -23t99 -67t70.5 -115t26.5 -160q0 -116 -36 -216.5t-101 -173.5t-161.5 -115t-212.5 -42q-85 0 -158.5 29.5t-127.5 84.5t-85 140t-31 189z M338 452q0 -117 50.5 -184.5t131.5 -67.5q112 0 189 89.5t77 229.5q0 78 -45 122.5t-128 44.5q-45 0 -96 -20t-97 -54.5t-79 -76.5q-3 -41 -3 -83z" />
<glyph unicode="7" horiz-adv-x="935" d="M97 16l559 1178h-521l27 212h787l-17 -154l-597 -1280z" />
<glyph unicode="8" horiz-adv-x="1096" d="M74 320q0 147 74 264t204 173v3q-17 9 -33 21.5t-31 28.5t-27 36t-21 43t-14 51t-5 58q0 91 34.5 170t94.5 134.5t143.5 87t177.5 31.5q70 0 132 -19.5t109.5 -57t75.5 -96t28 -130.5q0 -120 -53 -210t-148 -139l-1 -4q85 -29 136 -106t51 -190q0 -112 -39.5 -203.5 t-110 -152.5t-168.5 -94.5t-214 -33.5q-179 0 -287 90.5t-108 244.5zM314 384q0 -57 22.5 -100t65.5 -67t102 -24q110 0 184 73.5t74 189.5q0 60 -22.5 103t-66 65.5t-104.5 22.5q-74 0 -133 -37.5t-90.5 -97t-31.5 -128.5zM443 1009q0 -65 42 -107t109 -42q83 0 141 60 t58 154q0 65 -40 104t-115 39q-54 0 -98.5 -26.5t-70.5 -74t-26 -107.5z" />
<glyph unicode="9" horiz-adv-x="1117" d="M146 864q0 122 40 226.5t109.5 177t165.5 113.5t205 41q179 0 286.5 -119.5t107.5 -325.5q0 -185 -58.5 -357t-161.5 -306.5t-250 -230t-318 -131.5l-41 193q192 57 325.5 173.5t201.5 279.5l-2 1q-126 -91 -283 -91q-70 0 -129.5 23t-103.5 67t-69 112.5t-25 153.5z M380 905q0 -91 43.5 -138.5t128.5 -47.5q74 0 147.5 43t124.5 108q3 42 3 84q0 120 -48.5 186t-139.5 66q-113 0 -186 -84.5t-73 -216.5z" />
<glyph unicode=":" horiz-adv-x="565" d="M92 130q0 66 44 109.5t109 43.5q62 0 104 -42t42 -106q0 -65 -43.5 -108t-108.5 -43q-63 0 -105 42t-42 104zM186 861q0 66 44 109.5t109 43.5q62 0 104 -42t42 -106q0 -42 -19.5 -77t-54.5 -54.5t-78 -19.5q-63 0 -105 42t-42 104z" />
<glyph unicode=";" horiz-adv-x="515" d="M-18 -270l121 516h238l-193 -516h-166zM150 861q0 66 44 109.5t109 43.5q62 0 104 -42t42 -106q0 -65 -43.5 -108t-108.5 -43q-63 0 -105 42t-42 104z" />
<glyph unicode="&#x3c;" horiz-adv-x="1115" d="M120 478l19 168l907 419l-26 -226l-580 -275l511 -277l-26 -221z" />
<glyph unicode="=" horiz-adv-x="1142" d="M133 231l25 206h875l-26 -206h-874zM197 697l25 206h875l-26 -206h-874z" />
<glyph unicode="&#x3e;" horiz-adv-x="1117" d="M86 66l25 221l582 277l-512 275l26 226l805 -419l-19 -168z" />
<glyph unicode="?" horiz-adv-x="894" d="M138 1331l149 -148q85 118 200 118q65 0 102 -40.5t37 -116.5q0 -33 -8 -65.5t-20.5 -58.5t-34 -56t-40 -52t-47.5 -53q-9 -10 -31 -33.5t-31.5 -33.5t-28 -30.5t-27 -32t-22 -30.5t-20.5 -34t-15.5 -33.5t-13 -37.5t-6.5 -39l-11 -99h207l18 96q5 27 19 54t42 58.5 t49 52.5t63 61q46 43 80.5 84t68 94t51.5 114.5t18 127.5q0 81 -28 144.5t-75 102.5t-106.5 59t-125.5 20q-122 0 -233 -51t-180 -142zM198 130q0 66 44 109.5t109 43.5q62 0 104 -42t42 -106q0 -65 -43.5 -108t-108.5 -43q-63 0 -105 42t-42 104z" />
<glyph unicode="@" horiz-adv-x="1846" d="M100 466q0 80 15 163.5t49 171t84 166.5t124 149.5t164.5 122t211.5 81.5t259 30q172 0 313.5 -55t237 -153t148 -234t52.5 -296q0 -43 -6 -89t-20.5 -98.5t-36.5 -100t-57.5 -92t-80.5 -77t-107.5 -52t-135.5 -19.5q-95 0 -161 50t-84 140h-5q-53 -78 -128.5 -122.5 t-168.5 -44.5q-60 0 -112 22.5t-91.5 65t-62.5 108.5t-23 148q0 143 56.5 262t155.5 187t218 68q140 0 218 -76h6l8 64h227l-67 -539q-6 -49 -4 -84t23.5 -53.5t64.5 -18.5q46 0 85.5 36.5t63.5 91.5t37 113.5t13 108.5q0 121 -40.5 227t-113.5 183.5t-182 122.5t-240 45 q-109 0 -204.5 -23t-169 -63.5t-134 -96.5t-102 -120t-70 -135.5t-41.5 -142.5t-13 -142q0 -134 45.5 -247.5t124 -189.5t183 -118.5t221.5 -42.5q229 0 434 106l75 -124q-72 -47 -155 -80t-173 -50t-181 -17q-161 0 -298 53t-236.5 150t-156 241.5t-56.5 318.5zM708 471 q0 -83 37 -122.5t88 -39.5q86 0 167 95t101 232l8 68q-73 60 -174 60q-47 0 -90 -26t-72.5 -68t-47 -94.5t-17.5 -104.5z" />
<glyph unicode="A" horiz-adv-x="1326" d="M-9 0l665 1455h251l308 -1455h-251l-59 316h-522l-137 -316h-255zM473 526h392l-117 625h-4z" />
<glyph unicode="B" horiz-adv-x="1255" d="M126 0l179 1455h469q199 0 295 -72.5t96 -228.5q0 -122 -61.5 -225t-170.5 -153v-4q213 -63 213 -294q0 -139 -57.5 -246.5t-168 -169.5t-258.5 -62h-536zM396 217h208q66 0 120.5 20.5t91.5 56.5t57.5 85.5t20.5 105.5q0 81 -52.5 118.5t-165.5 37.5h-228zM473 850h202 q102 0 172 73t70 185q0 46 -22 74.5t-65.5 42t-112.5 13.5h-196z" />
<glyph unicode="C" horiz-adv-x="1390" d="M138 591q0 143 34.5 276t101 242t157.5 190.5t209.5 126.5t251.5 45q319 0 504 -304l-205 -142q-113 217 -309 217q-88 0 -166 -35.5t-137 -97.5t-102 -144t-65 -177.5t-22 -195.5q0 -178 89 -279t254 -101q94 0 186.5 48.5t158.5 128.5l180 -157q-104 -114 -242 -181 t-293 -67q-126 0 -231.5 38.5t-185 113t-124 191t-44.5 264.5z" />
<glyph unicode="D" horiz-adv-x="1419" d="M126 0l179 1455h435q194 0 328.5 -74t200.5 -208t66 -320q0 -191 -53.5 -349.5t-151.5 -269.5t-242 -172.5t-320 -61.5h-442zM396 217h196q111 0 203.5 47.5t155.5 131.5t97.5 201.5t34.5 255.5q0 178 -94.5 281.5t-268.5 103.5h-199z" />
<glyph unicode="E" horiz-adv-x="1177" d="M126 0l179 1455h837l-27 -217h-596l-51 -408h482l-27 -217h-481l-48 -396h635l-27 -217h-876z" />
<glyph unicode="F" horiz-adv-x="1152" d="M126 0l179 1455h869l-27 -217h-627l-55 -441h526l-27 -218h-525l-71 -579h-242z" />
<glyph unicode="G" horiz-adv-x="1447" d="M137 591q0 143 35.5 276t102.5 242t157.5 190.5t206.5 126.5t243 45q162 0 288.5 -62.5t209.5 -187.5l-200 -148q-106 169 -307 169q-103 0 -193 -51t-153 -138.5t-99 -206t-36 -249.5q0 -91 23 -164t66.5 -123.5t109 -77.5t148.5 -27q151 0 294 98l34 255h-305l28 217 h545l-72 -611q-99 -83 -242 -131.5t-291 -48.5q-129 0 -236 38.5t-187.5 112.5t-125 191t-44.5 265z" />
<glyph unicode="H" horiz-adv-x="1432" d="M126 0l179 1455h242l-81 -653h574l80 653h242l-179 -1455h-242l73 585h-574l-72 -585h-242z" />
<glyph unicode="I" horiz-adv-x="636" d="M135 0l179 1455h243l-179 -1455h-243z" />
<glyph unicode="J" horiz-adv-x="994" d="M27 173l167 167q35 -58 75.5 -92t94.5 -34q186 0 227 324l113 917h244l-114 -929q-33 -269 -145.5 -405.5t-323.5 -136.5q-102 0 -192 49t-146 140z" />
<glyph unicode="K" horiz-adv-x="1287" d="M126 0l179 1455h242l-83 -680h4l568 680h312l-568 -648l401 -807h-293l-288 595h-5l-180 -206l-47 -389h-242z" />
<glyph unicode="L" horiz-adv-x="1119" d="M126 0l179 1455h242l-152 -1238h600l-27 -217h-842z" />
<glyph unicode="M" horiz-adv-x="1703" d="M126 0l179 1455h259l298 -854h6l501 854h264l-179 -1455h-242l117 962h-5l-413 -681h-168l-251 701h-4l-120 -982h-242z" />
<glyph unicode="N" horiz-adv-x="1478" d="M126 0l179 1455h257l471 -1050h5l129 1050h241l-179 -1455h-264l-466 1032h-4l-127 -1032h-242z" />
<glyph unicode="O" horiz-adv-x="1566" d="M138 596q0 114 25 224t70.5 206.5t113.5 178.5t151 141t186 92t215 33q130 0 238.5 -41.5t185 -119t119 -193t42.5 -257.5q0 -140 -33 -270t-98.5 -240t-156 -192t-213 -128t-262.5 -46q-131 0 -239 41.5t-184 119t-118 192.5t-42 259zM389 602q0 -193 93 -293.5 t257 -100.5q85 0 162.5 35t137 97t103.5 143.5t67 176.5t23 194q0 194 -95 293.5t-265 99.5q-83 0 -159 -36t-134.5 -98.5t-101.5 -144t-65.5 -176t-22.5 -190.5z" />
<glyph unicode="P" horiz-adv-x="1220" d="M126 0l179 1455h490q207 0 302 -99.5t95 -292.5q0 -256 -148 -398.5t-428 -142.5h-184l-64 -522h-242zM458 740h192q90 0 154.5 34.5t100.5 108t36 180.5q0 80 -55 127.5t-146 47.5h-220z" />
<glyph unicode="Q" horiz-adv-x="1604" d="M138 596q0 137 34.5 266.5t101.5 239t158.5 192t212 129t254.5 46.5q131 0 239 -41.5t184.5 -118.5t119 -192t42.5 -257q0 -165 -46 -315.5t-133 -267.5l135 -146l-155 -172l-141 157q-184 -132 -423 -132q-131 0 -239 41.5t-184 119t-118 192.5t-42 259zM389 602 q0 -193 93 -293.5t257 -100.5q134 0 246 85l-121 134l152 163l116 -125q100 173 100 389q0 194 -95 292.5t-265 98.5q-83 0 -159 -35.5t-134.5 -98t-101.5 -143.5t-65.5 -175.5t-22.5 -190.5z" />
<glyph unicode="R" horiz-adv-x="1283" d="M126 0l179 1455h500q207 0 302 -99.5t95 -292.5q0 -187 -85 -318t-247 -186v-5l261 -554h-280l-231 522h-188l-64 -522h-242zM458 740h202q134 0 212.5 84t78.5 239q0 80 -55 127.5t-147 47.5h-229z" />
<glyph unicode="S" horiz-adv-x="1155" d="M57 229l179 164q28 -59 76 -101.5t104 -63.5t115 -21q111 0 185 60q73 59 72 143q0 28 -9.5 49.5t-21.5 37t-39 34.5t-47 30.5t-62.5 35t-69.5 39.5q-13 8 -41 24q-34 20 -52 30.5t-50.5 31t-50 34.5t-44 36t-41.5 40.5t-32.5 44.5t-26.5 51t-15.5 56.5t-6.5 64.5 q0 95 37.5 175t101.5 133.5t150.5 83.5t184.5 30q124 0 237 -56t189 -155l-175 -154q-29 42 -64 72t-71 45.5t-68 22t-64 6.5q-94 0 -151 -50q-55 -49 -55 -119q0 -23 6 -45q5 -18 19.5 -36t27 -30.5t41 -32t47.5 -31.5t61 -36q9 -5 13 -8q28 -16 72 -40.5t72 -40t65.5 -40 t61.5 -44.5t50 -48.5t41 -57.5t24.5 -67t9.5 -81q0 -112 -39 -201.5t-107.5 -145t-157.5 -85t-192 -29.5q-157 0 -287.5 66.5t-201.5 178.5z" />
<glyph unicode="T" horiz-adv-x="1118" d="M159 1238l26 217h982l-26 -217h-371l-152 -1238h-242l153 1238h-370z" />
<glyph unicode="U" horiz-adv-x="1392" d="M172 497q0 55 8 124l103 834h241l-103 -834q-7 -56 -7 -113q0 -295 236 -295q145 0 234 92t114 298l104 852h242l-105 -853q-39 -317 -186.5 -467.5t-413.5 -150.5q-119 0 -209 36.5t-146 104.5t-84 161.5t-28 210.5z" />
<glyph unicode="V" horiz-adv-x="1316" d="M182 1455h255l203 -1114h4l463 1114h275l-664 -1455h-229z" />
<glyph unicode="W" horiz-adv-x="1943" d="M186 1455h253l146 -1032h6l361 1032h275l108 -1021h6l392 1021h261l-591 -1455h-242l-120 1038h-5l-377 -1038h-240z" />
<glyph unicode="X" horiz-adv-x="1335" d="M5 0l522 734l-327 721h275l238 -547h4l359 547h298l-507 -731l337 -724h-288l-242 546h-3l-378 -546h-288z" />
<glyph unicode="Y" horiz-adv-x="1190" d="M149 1455h264l218 -580h6l356 580h287l-547 -811l-81 -644h-243l81 644z" />
<glyph unicode="Z" horiz-adv-x="1208" d="M61 0l22 190l773 1041l1 7h-619l27 217h929l-20 -187l-787 -1043l-1 -8h659l-28 -217h-956z" />
<glyph unicode="[" horiz-adv-x="666" d="M29 -301l221 1800h429l-20 -174h-231l-179 -1451h231l-22 -175h-429z" />
<glyph unicode="\" horiz-adv-x="810" d="M108 1518l185 82l490 -1747l-187 -82z" />
<glyph unicode="]" horiz-adv-x="673" d="M10 -301l22 175h238l179 1451h-239l21 174h438l-221 -1800h-438z" />
<glyph unicode="^" horiz-adv-x="910" d="M180 1023l304 432h170l201 -432h-194l-105 280l-184 -280h-192z" />
<glyph unicode="_" horiz-adv-x="982" d="M-92 -210l19 154h991l-19 -154h-991z" />
<glyph unicode="`" horiz-adv-x="937" d="M315 1398l250 -1l171 -295h-229z" />
<glyph unicode="a" horiz-adv-x="1150" d="M80 390q0 94 22 185.5t65 170.5t101.5 139.5t137 95t165.5 34.5q166 0 263 -94h7l9 78h224l-123 -999h-224l24 191h-4q-69 -102 -154 -154.5t-170 -52.5q-86 0 -153 31.5t-108 87.5t-61.5 128.5t-20.5 158.5zM308 386q0 -62 18 -107.5t54 -71t87 -25.5q41 0 84 21.5 t84 63.5t76 100t61 136t38 165l5 47q-30 30 -68.5 52t-79.5 33.5t-79 11.5q-64 0 -118 -38t-88.5 -99.5t-54 -136.5t-19.5 -152z" />
<glyph unicode="b" horiz-adv-x="1173" d="M101 99l173 1409h224l-83 -679h4q144 186 330 186q85 0 151 -33.5t106.5 -92t61.5 -134.5t21 -166t-21.5 -176t-68 -164t-112 -136.5t-161 -93.5t-208.5 -35q-122 0 -222.5 27.5t-194.5 87.5zM339 210q74 -23 156 -23q86 0 156.5 35t115.5 94t69.5 136t24.5 163 q0 52 -18 96t-55.5 72t-87.5 28q-58 0 -114 -33.5t-102.5 -94.5t-81 -152t-49.5 -201z" />
<glyph unicode="c" horiz-adv-x="1007" d="M84 410q0 123 36.5 232.5t102.5 192.5t167 131.5t222 48.5q120 0 215 -43.5t149 -123.5l-176 -131q-63 94 -193 94q-65 0 -120.5 -30t-94 -81.5t-60 -121.5t-21.5 -149q0 -42 7.5 -78t21 -61.5t31.5 -45t40.5 -31.5t46 -17.5t49.5 -5.5q21 0 43 4t45.5 12t46.5 20.5 t46.5 30.5t44.5 40l176 -127q-87 -91 -185.5 -137.5t-225.5 -46.5q-192 0 -303 108.5t-111 315.5z" />
<glyph unicode="d" horiz-adv-x="1172" d="M82 390q0 94 22 185.5t65 170.5t101.5 139.5t137 95t165.5 34.5q171 0 272 -98h5l72 591h224l-186 -1508h-224l24 189h-6q-69 -101 -155 -153t-174 -52q-86 0 -153 31.5t-108 87.5t-61.5 128.5t-20.5 158.5zM310 386q0 -95 41 -149.5t118 -54.5q54 0 109.5 34.5t104 95.5 t85 154t51.5 202l6 55q-41 45 -103 67t-132 22q-64 0 -118 -38t-88.5 -99.5t-54 -136.5t-19.5 -152z" />
<glyph unicode="e" horiz-adv-x="981" d="M84 402q0 98 22 188.5t66.5 167.5t107 134.5t147 90t182.5 32.5q85 0 157 -30.5t118 -93.5t46 -147q0 -74 -34.5 -136t-91.5 -105.5t-137.5 -77.5t-166.5 -54t-185 -32l-3 -2q12 -48 41 -82t66 -49.5t79 -15.5q67 0 120 25.5t108 81.5l176 -127q-62 -63 -116.5 -101 t-129 -60.5t-166.5 -22.5q-124 0 -215.5 49.5t-141 143.5t-49.5 223zM318 534l2 -3q50 7 95 15.5t89.5 21t79.5 29t62 36.5t42 45.5t15 54.5q0 25 -12 42t-35.5 26.5t-57.5 9.5q-33 0 -66 -10t-66.5 -31.5t-61.5 -53.5t-51 -78.5t-35 -103.5z" />
<glyph unicode="f" horiz-adv-x="654" d="M112 0l99 808h-94l23 191h95l26 208q19 158 95.5 237.5t201.5 79.5q43 0 79 -5.5t73.5 -21t73.5 -40.5l-60 -187q-69 49 -128 49q-47 0 -76.5 -33t-39.5 -123l-20 -164h199l-23 -191h-201l-99 -808h-224z" />
<glyph unicode="g" horiz-adv-x="1153" d="M68 -324l74 194q137 -87 273 -87q46 0 82.5 6t72.5 20.5t63 40.5t50.5 65t39.5 95.5t25 130.5l11 91h-4q-69 -106 -155.5 -160.5t-173 -54.5t-153.5 31.5t-108 87t-61.5 128t-20.5 157.5t22 170.5t65 161t101.5 134.5t137 93.5t165.5 34.5q168 0 264 -95h6l10 79h224 l-107 -875q-16 -130 -54 -227.5t-89 -157t-121.5 -96.5t-142 -50.5t-159.5 -13.5q-185 0 -337 97zM311 417q0 -93 41 -147.5t118 -54.5q50 0 104 33t101 90t84 141t53 179l6 57q-44 44 -106 70.5t-121 26.5q-63 0 -117.5 -37.5t-89 -96t-54 -127.5t-19.5 -134z" />
<glyph unicode="h" horiz-adv-x="1148" d="M95 0l185 1508h224l-84 -682h6q154 188 359 188q157 0 216 -102q40 -69 40 -186q0 -56 -9 -123l-82 -603h-224l79 584q7 50 7 89q0 49 -12 81q-20 56 -91 56q-46 0 -100.5 -33.5t-104.5 -90t-88.5 -140t-50.5 -173.5l-46 -373h-224z" />
<glyph unicode="i" horiz-adv-x="528" d="M91 0l123 999h224l-123 -999h-224zM223 1297q0 66 43.5 109t109.5 43q62 0 104 -42t42 -105q0 -65 -43.5 -108t-108.5 -43q-63 0 -105 42t-42 104z" />
<glyph unicode="j" horiz-adv-x="492" d="M-207 -373l57 176q42 -31 91 -31t76 43t39 143l128 1041h225l-132 -1073q-42 -346 -301 -346q-62 0 -102.5 11.5t-80.5 35.5zM192 1297q0 66 43.5 109t109.5 43q41 0 74.5 -19t52.5 -52.5t19 -75.5q0 -65 -43.5 -108t-108.5 -43q-63 0 -105 42t-42 104z" />
<glyph unicode="k" horiz-adv-x="1063" d="M89 0l185 1508h223l-127 -1040h6q307 190 410 531h228q-29 -138 -105 -269t-191 -243l53 -135q17 -43 33 -73.5t31.5 -51t34 -34t38 -21t46.5 -13.5l-65 -172q-26 -3 -47 -3q-45 0 -81.5 15.5t-60 34.5t-49.5 64.5t-40 78t-43 101.5q-3 9 -5 13l-20 48h-5 q-91 -63 -199 -114l-27 -225h-223z" />
<glyph unicode="l" horiz-adv-x="523" d="M102 0l185 1508h224l-185 -1508h-224z" />
<glyph unicode="m" horiz-adv-x="1704" d="M89 0l123 999h224l-21 -172h4q150 187 335 187q194 0 233 -184h7q144 184 351 184q154 0 212 -102q39 -69 39 -185q0 -56 -9 -124l-82 -603h-224l78 584q7 52 7 92q0 48 -10 78q-18 56 -77 56q-38 0 -87.5 -33t-96.5 -88t-85 -136.5t-51 -169.5l-52 -383h-223l78 584 q7 51 7 91q-1 3 -1 6q0 42 -9.5 70.5t-28.5 43.5t-49 15q-38 0 -88 -33.5t-97.5 -89t-86 -139t-50.5 -172.5l-46 -376h-224z" />
<glyph unicode="n" horiz-adv-x="1141" d="M89 0l123 999h224l-21 -174h4q154 190 360 190q157 0 216 -102q40 -69 40 -187q0 -56 -9 -123l-82 -603h-224l79 584q7 50 7 89q0 50 -12 82q-20 56 -91 56q-46 0 -100 -33.5t-104 -89.5t-88.5 -139.5t-51.5 -173.5l-46 -375h-224z" />
<glyph unicode="o" horiz-adv-x="1123" d="M84 405q0 97 23 187.5t69 167t109 134t148 89.5t181 32q195 0 310 -108t115 -305q0 -129 -35.5 -241t-102 -196.5t-169 -132.5t-228.5 -48q-194 0 -307 111t-113 310zM310 433q0 -109 53 -177t146 -68q66 0 123 31t96 84.5t61 125.5t22 153q0 54 -14 96t-35 66.5t-50 40 t-56 21t-55 5.5q-64 0 -119.5 -32.5t-92.5 -86t-58 -121t-21 -138.5z" />
<glyph unicode="p" horiz-adv-x="1170" d="M38 -405l173 1404h224l-24 -189h4q137 205 351 205q79 0 141.5 -33t101.5 -89.5t59 -129t20 -154.5q0 -94 -22 -185.5t-65.5 -170.5t-102.5 -139.5t-138 -95t-168 -34.5q-170 0 -267 90h-5l-58 -479h-224zM347 284q26 -47 82 -72t130 -25q88 0 158 60t106.5 159.5 t36.5 218.5q0 49 -15 90.5t-49.5 70t-83.5 28.5q-58 0 -115.5 -34.5t-106.5 -96t-86 -154t-52 -202.5z" />
<glyph unicode="q" horiz-adv-x="1149" d="M80 390q0 94 22 185.5t65 170.5t101.5 139.5t137 95t165.5 34.5q166 0 263 -94h7l9 78h224l-172 -1404h-224l74 596h-5q-69 -102 -154 -154.5t-170 -52.5q-86 0 -153 31.5t-108 87.5t-61.5 128.5t-20.5 158.5zM308 386q0 -62 18 -107.5t54 -71t87 -25.5q41 0 84 21.5 t84 63.5t76 100t61 136t38 165l5 47q-30 30 -68.5 52t-79.5 33.5t-79 11.5q-64 0 -118 -38t-88.5 -99.5t-54 -136.5t-19.5 -152z" />
<glyph unicode="r" horiz-adv-x="729" d="M89 0l123 999h224l-22 -180h5q141 193 329 195l-31 -256q-27 5 -53 5q-44 -1 -83 -15q-62 -22 -106 -74t-73 -127t-42 -169l-47 -378h-224z" />
<glyph unicode="s" horiz-adv-x="875" d="M27 155l148 146q42 -57 100 -89t119 -32q67 0 112 26.5t45 72.5q0 35 -33.5 58.5t-120.5 62.5q-19 8 -29 13q-55 25 -97 52.5t-77.5 63.5t-54 81.5t-18.5 98.5q0 67 27.5 124.5t74.5 97t110.5 62t133.5 22.5q47 0 93.5 -8.5t92.5 -25.5t88 -45t74 -64l-149 -151 q-41 52 -95 76t-106 24t-84 -25.5t-32 -68.5q0 -40 41 -72.5t121 -71.5q3 -1 9 -4q33 -16 50.5 -25t49 -27t49.5 -32.5t41.5 -36.5t36 -43.5t22 -49.5t9.5 -59v-6q0 -150 -103 -232q-105 -84 -281 -84q-112 0 -214 47t-153 124z" />
<glyph unicode="t" horiz-adv-x="692" d="M86 808l23 191h107l39 312l229 45l-44 -357h245l-23 -191h-245l-60 -491q-2 -18 -2 -33q0 -85 68 -85q54 0 144 50l32 -195q-37 -22 -81 -38t-87.5 -24t-84.5 -8q-125 0 -180 79q-43 61 -43 156q0 28 4 58l65 531h-106z" />
<glyph unicode="u" horiz-adv-x="1111" d="M113 386l75 613h224l-71 -594q-6 -44 -5 -78q0 -57 16 -89q26 -48 94 -49q42 0 92.5 31t96.5 83.5t81.5 129.5t45.5 160l50 406h224l-123 -999h-224l22 179h-4q-128 -195 -330 -195q-158 0 -224 96q-47 69 -47 196q0 51 7 110z" />
<glyph unicode="v" horiz-adv-x="1039" d="M121 425q-8 -61 -8 -114q0 -327 300 -327q83 0 159 25t146.5 80.5t124.5 138.5t90.5 206.5t46.5 275.5q3 40 3 80q0 105 -19 209h-228q16 -118 16 -217q0 -49 -4 -94q-8 -85 -27 -159t-44.5 -127.5t-55.5 -95t-62 -67t-62.5 -38t-58.5 -12.5q-66 0 -86 60q-11 33 -11 89 q0 46 7 106l69 555h-224z" />
<glyph unicode="w" horiz-adv-x="1441" d="M119 406l74 593h224l-71 -575q-6 -51 -6 -91v-11q1 -44 10 -73.5t24.5 -44.5t37.5 -15q26 0 56 20t60 58t54.5 102.5t35.5 142.5l61 487h224l-71 -584q-7 -54 -7 -95q0 -131 68 -131q23 0 52.5 19.5t62.5 61.5t62 100.5t52 144t33 183.5q3 37 3 79q0 96 -17 222h228 q15 -90 17 -161v-21q0 -64 -7 -147q-11 -139 -48 -254.5t-88.5 -194t-117 -133t-133 -79.5t-136.5 -25q-97 0 -154.5 43t-76.5 133h-6q-102 -176 -266 -176q-141 0 -201 108q-41 75 -41 197q0 54 8 117z" />
<glyph unicode="x" horiz-adv-x="999" d="M-11 0l376 512l-246 487h257l136 -315h4l218 315h272l-371 -495l250 -504h-258l-152 317h-4l-225 -317h-257z" />
<glyph unicode="y" horiz-adv-x="1117" d="M45 -324l74 194q137 -87 273 -87q53 0 93.5 8.5t80 31.5t67.5 62.5t49.5 103.5t32.5 152l5 37h-6q-130 -194 -337 -194q-158 0 -224 96q-47 69 -47 196q0 51 7 110l75 613h224l-71 -594q-5 -43 -5 -76q0 -60 16 -91q25 -48 94 -49q45 0 97 30.5t98.5 82t82 127 t46.5 157.5l51 413h222l-107 -875q-10 -82 -28.5 -151t-45 -122t-58 -95t-69.5 -71.5t-77.5 -50.5t-85 -32.5t-89 -17t-91.5 -5.5q-195 0 -347 97z" />
<glyph unicode="z" horiz-adv-x="955" d="M24 0l18 158l529 646l1 4h-417l24 191h727l-17 -155l-539 -650v-4q288 -6 479 -65l-62 -185q-58 18 -133.5 30t-134 18t-161.5 9t-149.5 3h-164.5z" />
<glyph unicode="{" horiz-adv-x="709" d="M112 508l14 173q44 2 76 13.5t49.5 26t29 38.5t15.5 41.5t7 43.5l51 412q13 105 78.5 174t162.5 69h138l-19 -155h-47q-29 0 -53 -13.5t-38 -35t-22.5 -44.5t-11.5 -47l-50 -399q-8 -60 -22 -100.5t-38 -67t-61 -41.5l-1 -6q24 -11 39 -24.5t25.5 -38t10 -60.5t-5.5 -92 l-45 -374q-9 -76 9 -110.5t74 -34.5h55l-19 -154h-130q-92 0 -147.5 70t-41.5 181l50 402q6 31 5 58t-10.5 47t-41 33t-85.5 15z" />
<glyph unicode="|" horiz-adv-x="665" d="M145 -235l214 1744h194l-214 -1744h-194z" />
<glyph unicode="}" horiz-adv-x="708" d="M1 -298l19 154h47q62 0 89.5 38t37.5 116l46 374q9 75 24.5 116.5t37.5 61.5t63 35v4q-93 42 -71 214l48 398q4 22 1.5 45.5t-10 42.5t-27 31t-49.5 12h-55l19 155h130q97 0 149.5 -74t39.5 -179l-51 -411q-3 -21 -4 -31t-0.5 -29t5 -29t13.5 -23.5t24 -21t38.5 -13.5 t54.5 -7l-14 -173q-44 -2 -75.5 -12t-49 -23.5t-29 -37t-15.5 -42.5t-8 -49l-49 -400q-13 -111 -81 -176.5t-160 -65.5h-138z" />
<glyph unicode="~" horiz-adv-x="1096" d="M115 483q50 111 122 176t160 65q22 0 43 -3t34 -6t31.5 -11t24 -10.5t23 -13t18.5 -10.5q77 -45 124 -45q42 0 79.5 28.5t64.5 74.5l160 -65q-47 -114 -120.5 -182t-157.5 -68q-39 0 -74.5 8.5t-52 16t-45.5 23.5q-4 2 -13 7q-23 13 -34.5 18.5t-28 13t-29 10.5t-24.5 3 q-82 0 -145 -104z" />
<glyph unicode="&#xa2;" horiz-adv-x="1035" d="M103 512q0 149 53 278t156.5 217.5t238.5 110.5l25 200h187l-25 -202q173 -31 257 -158l-176 -131q-31 46 -80 70t-101 24q-88 0 -158.5 -52t-110 -142t-39.5 -200q0 -107 56 -167t131 -60q131 0 235 107l176 -127q-72 -74 -146.5 -117.5t-168.5 -58.5l-25 -203h-187 l25 201q-151 23 -237 130.5t-86 279.5z" />
<glyph unicode="&#xa3;" horiz-adv-x="1054" d="M36 0l27 217h122l55 453h-101l20 165h102l15 125q12 102 42 182.5t70 132t91 85t103 47.5t109 14q110 0 203 -55.5t147 -151.5l-143 -155q-34 64 -83 100t-99 36q-172 0 -205 -270l-11 -90h282l-20 -165h-280l-55 -453h532l-27 -217h-896z" />
<glyph unicode="&#xa5;" horiz-adv-x="1105" d="M128 1406h276l188 -582l324 582h286l-358 -562h147l-16 -139h-220l-63 -100h270l-17 -139h-277l-59 -466h-243l59 466h-293l18 139h286l-38 100h-236l17 139h165z" />
<glyph unicode="&#xa8;" horiz-adv-x="976" d="M238 1260q0 66 43.5 109t109.5 43q62 0 104 -42t42 -105q0 -65 -43.5 -108t-108.5 -43q-41 0 -75 19t-53 52.5t-19 74.5zM627 1260q0 66 43.5 109t109.5 43q62 0 104 -42t42 -105q0 -42 -19.5 -77t-54.5 -54.5t-78 -19.5q-31 0 -58.5 11t-47 30.5t-30.5 46.5t-11 58z" />
<glyph unicode="&#xa9;" horiz-adv-x="1468" d="M95 651q0 86 22.5 168.5t63.5 153t99.5 130t128.5 101.5t154 65.5t172 23.5q131 0 249.5 -51.5t203 -138.5t134 -205t49.5 -247q0 -102 -31.5 -199t-90.5 -176.5t-137 -140t-176 -93.5t-204 -33q-132 0 -250.5 51.5t-203 138t-134 205t-49.5 247.5zM252 649 q0 -99 37 -188.5t100.5 -154.5t153 -103.5t189.5 -38.5t190 39t153.5 104.5t101 155.5t37.5 188q0 99 -37 188.5t-100.5 155t-152.5 104t-189 38.5q-101 0 -191 -39t-154 -104.5t-101 -155.5t-37 -189zM414 647q0 94 38 169t115.5 121t183.5 46q73 0 142 -31.5t121 -95.5 l-102 -87q-30 35 -72 57.5t-89 22.5q-85 0 -137.5 -54.5t-52.5 -147.5q0 -89 52 -144t138 -55q32 0 62.5 10t55.5 27.5t43 40.5l102 -88q-46 -57 -112.5 -90.5t-150.5 -33.5q-69 0 -129.5 21.5t-107 62.5t-73.5 105t-27 144z" />
<glyph unicode="&#xab;" horiz-adv-x="981" d="M92 504l283 445h215l-279 -445l170 -437h-216zM478 504l283 445h215l-279 -445l170 -437h-216z" />
<glyph unicode="&#xad;" d="M117 523l27 219h559l-28 -219h-558z" />
<glyph unicode="&#xae;" horiz-adv-x="1477" d="M95 651q0 103 32 201t91 178t138 140.5t178 94t205 33.5q133 0 252 -52t204 -139.5t134.5 -206.5t49.5 -249q0 -129 -50 -248t-135 -206.5t-205 -139.5t-253 -52q-132 0 -251 52t-204.5 139t-135.5 206t-50 249zM252 649q0 -80 24 -154t68 -134.5t103 -105.5t133.5 -70 t155.5 -25q101 0 191.5 39.5t154.5 105.5t101.5 156.5t37.5 189.5q0 100 -37.5 190.5t-101 156.5t-153.5 105t-190 39q-82 0 -157 -25t-134.5 -71t-103.5 -107t-68 -135.5t-24 -154.5zM509 324v663h252q114 0 172 -61t58 -161q0 -76 -34.5 -126.5t-96.5 -72.5l163 -242h-160 l-147 225h-71v-225h-136zM646 672h84q58 0 88.5 26.5t30.5 69.5q0 42 -30.5 68.5t-83.5 26.5h-89v-191z" />
<glyph unicode="&#xb4;" horiz-adv-x="928" d="M344 1102l244 295l247 1l-264 -296h-227z" />
<glyph unicode="&#xb8;" horiz-adv-x="612" d="M33 -376l6 109q29 -12 88 -12q49 0 77.5 20t28.5 56q0 29 -34 42.5t-106 13.5l4 73l48 86h134l-49 -75l3 -3q152 -8 152 -134q0 -78 -66.5 -133.5t-169.5 -55.5q-58 0 -116 13z" />
<glyph unicode="&#xbb;" horiz-adv-x="986" d="M13 67l277 437l-172 445h215l176 -445l-280 -437h-216zM403 67l277 437l-172 445h215l176 -445l-280 -437h-216z" />
<glyph unicode="&#xc2;" horiz-adv-x="1326" d="M-9 0l665 1455h251l308 -1455h-251l-59 316h-522l-137 -316h-255zM473 526h392l-117 625h-4zM489 1608l241 300h214l178 -300h-218l-73 156h-6l-112 -156h-224z" />
<glyph unicode="&#xce;" horiz-adv-x="636" d="M133 1608l241 300h214l178 -300h-218l-73 156h-6l-112 -156h-224zM135 0l179 1455h243l-179 -1455h-243z" />
<glyph unicode="&#xe2;" horiz-adv-x="1150" d="M80 390q0 94 22 185.5t65 170.5t101.5 139.5t137 95t165.5 34.5q166 0 263 -94h7l9 78h224l-123 -999h-224l24 191h-4q-69 -102 -154 -154.5t-170 -52.5q-86 0 -153 31.5t-108 87.5t-61.5 128.5t-20.5 158.5zM308 386q0 -62 18 -107.5t54 -71t87 -25.5q41 0 84 21.5 t84 63.5t76 100t61 136t38 165l5 47q-30 30 -68.5 52t-79.5 33.5t-79 11.5q-64 0 -118 -38t-88.5 -99.5t-54 -136.5t-19.5 -152zM354 1135l241 300h214l178 -300h-218l-73 156h-6l-112 -156h-224z" />
<glyph unicode="&#xee;" horiz-adv-x="528" d="M29 1135l241 300h214l178 -300h-218l-73 156h-6l-112 -156h-224zM91 0l123 999h224l-123 -999h-224z" />
<glyph unicode="&#x102;" horiz-adv-x="1326" d="M-9 0l665 1455h251l308 -1455h-251l-59 316h-522l-137 -316h-255zM473 526h392l-117 625h-4zM544 1901h175q-7 -66 17 -103.5t82 -37.5q57 0 98.5 40t53.5 101h175q-27 -136 -115 -217.5t-214 -81.5q-129 0 -206 80t-66 219z" />
<glyph unicode="&#x103;" horiz-adv-x="1150" d="M80 390q0 94 22 185.5t65 170.5t101.5 139.5t137 95t165.5 34.5q166 0 263 -94h7l9 78h224l-123 -999h-224l24 191h-4q-69 -102 -154 -154.5t-170 -52.5q-86 0 -153 31.5t-108 87.5t-61.5 128.5t-20.5 158.5zM308 386q0 -62 18 -107.5t54 -71t87 -25.5q41 0 84 21.5 t84 63.5t76 100t61 136t38 165l5 47q-30 30 -68.5 52t-79.5 33.5t-79 11.5q-64 0 -118 -38t-88.5 -99.5t-54 -136.5t-19.5 -152zM409 1428h175q-7 -66 17 -103.5t82 -37.5q57 0 98.5 40t53.5 101h175q-27 -136 -115 -217.5t-214 -81.5q-129 0 -206 80t-66 219z" />
<glyph unicode="&#x104;" horiz-adv-x="1326" d="M-9 0l665 1455h251l308 -1455h-13q-81 -17 -135 -69.5t-54 -108.5q0 -29 15 -45.5t41 -16.5q51 0 83 17l3 -139q-52 -24 -141 -24q-93 0 -140 40t-47 115q0 64 38.5 126t98.5 106l-59 315h-522l-137 -316h-255zM473 526h392l-117 625h-4z" />
<glyph unicode="&#x105;" horiz-adv-x="1150" d="M80 390q0 94 22 185.5t65 170.5t101.5 139.5t137 95t165.5 34.5q166 0 263 -94h7l9 78h224l-123 -999h-7q-81 -17 -135 -69.5t-54 -108.5q0 -29 15 -45.5t41 -16.5q51 0 83 17l3 -139q-52 -24 -141 -24q-62 0 -104 18t-62.5 52.5t-20.5 84.5q0 47 22 94.5t57.5 87 t80.5 66.5l22 174h-4q-69 -102 -154 -154.5t-170 -52.5q-86 0 -153 31.5t-108 87.5t-61.5 128.5t-20.5 158.5zM308 386q0 -62 18 -107.5t54 -71t87 -25.5q41 0 84 21.5t84 63.5t76 100t61 136t38 165l5 47q-30 30 -68.5 52t-79.5 33.5t-79 11.5q-64 0 -118 -38t-88.5 -99.5 t-54 -136.5t-19.5 -152z" />
<glyph unicode="&#x10c;" horiz-adv-x="1390" d="M138 591q0 143 34.5 276t101 242t157.5 190.5t209.5 126.5t251.5 45q319 0 504 -304l-205 -142q-113 217 -309 217q-88 0 -166 -35.5t-137 -97.5t-102 -144t-65 -177.5t-22 -195.5q0 -178 89 -279t254 -101q94 0 186.5 48.5t158.5 128.5l180 -157q-104 -114 -242 -181 t-293 -67q-126 0 -231.5 38.5t-185 113t-124 191t-44.5 264.5zM669 1908h217l72 -155h8l111 155h225l-247 -300h-213z" />
<glyph unicode="&#x10d;" horiz-adv-x="1007" d="M84 410q0 123 36.5 232.5t102.5 192.5t167 131.5t222 48.5q120 0 215 -43.5t149 -123.5l-176 -131q-63 94 -193 94q-86 0 -154.5 -51.5t-105 -138t-36.5 -192.5q0 -42 7.5 -78t21 -61.5t31.5 -45t40.5 -31.5t46 -17.5t49.5 -5.5q56 0 115.5 26.5t110.5 80.5l176 -127 q-87 -91 -185.5 -137.5t-225.5 -46.5q-192 0 -303 108.5t-111 315.5zM384 1435h217l72 -155h8l111 155h225l-247 -300h-213z" />
<glyph unicode="&#x116;" horiz-adv-x="1177" d="M126 0l179 1455h837l-27 -217h-596l-51 -408h482l-27 -217h-481l-48 -396h635l-27 -217h-876zM626 1770q0 43 20 78t55 54.5t78 19.5q62 0 104 -42t42 -105q0 -42 -19.5 -77t-54.5 -54.5t-78 -19.5q-63 0 -105 42t-42 104z" />
<glyph unicode="&#x117;" horiz-adv-x="981" d="M84 402q0 98 22 188.5t66.5 167.5t107 134.5t147 90t182.5 32.5q85 0 157 -30.5t118 -93.5t46 -147q0 -74 -34.5 -136t-91.5 -105.5t-137.5 -77.5t-166.5 -54t-185 -32l-3 -2q18 -72 69.5 -109.5t116.5 -37.5q67 0 120 25.5t108 81.5l176 -127q-62 -63 -116.5 -101 t-129 -60.5t-166.5 -22.5q-124 0 -215.5 49.5t-141 143.5t-49.5 223zM318 534l2 -3q77 10 141.5 26t121 39.5t88.5 58.5t32 78q0 25 -12 42t-35.5 26.5t-57.5 9.5q-33 0 -66 -10t-66.5 -31.5t-61.5 -53.5t-51 -78.5t-35 -103.5zM507 1297q0 43 20 78t55 54.5t78 19.5 q41 0 74.5 -19t52.5 -52.5t19 -75.5q0 -65 -43.5 -108t-108.5 -43q-63 0 -105 42t-42 104z" />
<glyph unicode="&#x118;" horiz-adv-x="1177" d="M126 0l179 1455h837l-27 -217h-596l-51 -408h482l-27 -217h-481l-48 -396h635l-27 -217h-7q-81 -17 -135 -69.5t-54 -108.5q0 -29 15 -45.5t41 -16.5q51 0 83 17l3 -139q-52 -24 -141 -24q-62 0 -104 18t-62.5 52.5t-20.5 84.5q0 62 36.5 123t94.5 105l1 3h-626z" />
<glyph unicode="&#x119;" horiz-adv-x="981" d="M84 402q0 98 22 188.5t66.5 167.5t107 134.5t147 90t182.5 32.5q85 0 157 -30.5t118 -93.5t46 -147q0 -74 -34.5 -136t-91.5 -105.5t-137.5 -77.5t-166.5 -54t-185 -32l-3 -2q12 -48 41 -82t66 -49.5t79 -15.5q67 0 120 25.5t108 81.5l176 -127q-41 -41 -77.5 -71 t-80 -54t-90.5 -38q-87 -27 -141 -79t-54 -107q0 -27 16 -44t49 -17q8 0 21 2t28 6t25 9l3 -139q-53 -24 -141 -24q-93 0 -140 40t-47 115q0 59 33 117.5t87 102.5l1 5q-146 27 -228 133.5t-82 274.5zM318 534l2 -3q77 10 141.5 26t121 39.5t88.5 58.5t32 78q0 37 -27 57.5 t-78 20.5q-33 0 -66 -10t-66.5 -31.5t-61.5 -53.5t-51 -78.5t-35 -103.5z" />
<glyph unicode="&#x12e;" horiz-adv-x="636" d="M-2 -231q0 64 38.5 126.5t98.5 106.5l179 1453h243l-179 -1455h-5q-81 -17 -135 -69.5t-54 -108.5q0 -29 15 -45.5t41 -16.5q51 0 83 17l3 -139q-52 -24 -141 -24q-93 0 -140 40t-47 115z" />
<glyph unicode="&#x12f;" horiz-adv-x="528" d="M-67 -231q0 70 45.5 138t114.5 110l121 982h224l-123 -999h-7q-81 -17 -135 -69.5t-54 -108.5q0 -29 15 -45.5t41 -16.5q51 0 83 17l3 -139q-52 -24 -141 -24q-93 0 -140 40t-47 115zM223 1297q0 66 43.5 109t109.5 43q62 0 104 -42t42 -105q0 -65 -43.5 -108t-108.5 -43 q-63 0 -105 42t-42 104z" />
<glyph unicode="&#x15e;" horiz-adv-x="1155" d="M57 229l179 164q28 -59 76 -101.5t104 -63.5t115 -21q111 0 184.5 60t72.5 145q0 26 -9.5 47.5t-21.5 37t-39 34.5t-47 30.5t-62.5 35t-69.5 39.5q-13 8 -41 24q-34 20 -52 30.5t-50.5 31t-50 34.5t-44 36t-41.5 40.5t-32.5 44.5t-26.5 51t-15.5 56.5t-6.5 64.5 q0 95 37.5 175t101.5 133.5t150.5 83.5t184.5 30q124 0 237 -56t189 -155l-175 -154q-29 42 -64 72t-71 45.5t-68 22t-64 6.5q-94 0 -151 -50.5t-55 -123.5q1 -22 6 -40t19.5 -36t27 -30.5t41 -32t47.5 -31.5t61 -36q9 -5 13 -8q28 -16 72 -40.5t72 -40t65.5 -40t61.5 -44.5 t50 -48.5t41 -57.5t24.5 -67t9.5 -81q0 -112 -39 -201.5t-107.5 -145.5t-157.5 -85t-192 -29l-31 -47l3 -3q152 -8 152 -134q0 -78 -66.5 -133.5t-169.5 -55.5q-58 0 -116 13l6 109q29 -12 88 -12q49 0 77.5 20t28.5 56q0 29 -34 42.5t-106 13.5l4 73l39 70 q-118 22 -213 83.5t-151 149.5z" />
<glyph unicode="&#x15f;" horiz-adv-x="875" d="M27 155l148 146q28 -38 63.5 -65t75 -41.5t80.5 -14.5q67 0 112 26.5t45 72.5q0 36 -33.5 59t-120.5 62q-19 8 -29 13q-44 20 -79 41t-67.5 48t-54 57.5t-34 68.5t-12.5 81q0 67 27.5 124.5t74.5 97t110.5 62t133.5 22.5q98 0 191 -36t157 -107l-149 -151q-41 52 -95 76 t-106 24t-84 -25.5t-32 -68.5q0 -21 12 -40.5t36 -37.5t49.5 -32.5t64.5 -33.5q3 -1 9 -4q33 -16 50.5 -25t49 -27t49.5 -32t41.5 -36.5t36 -44t22 -49.5t9.5 -59q2 -155 -103 -238.5t-281 -83.5h-6l-31 -47l3 -3q152 -8 152 -134q0 -51 -29 -94t-83.5 -69t-123.5 -26 q-57 0 -116 13l6 109q29 -12 88 -12q49 0 77.5 20t28.5 56q0 29 -34 42.5t-106 13.5l4 73l42 75q-77 20 -140 60t-99 94z" />
<glyph unicode="&#x160;" horiz-adv-x="1155" d="M57 229l179 164q28 -59 76 -101.5t104 -63.5t115 -21q111 0 184.5 60t72.5 145q0 26 -9.5 47.5t-21.5 37t-39 34.5t-47 30.5t-62.5 35t-69.5 39.5q-13 8 -41 24q-34 20 -52 30.5t-50.5 31t-50 34.5t-44 36t-41.5 40.5t-32.5 44.5t-26.5 51t-15.5 56.5t-6.5 64.5 q0 95 37.5 175t101.5 133.5t150.5 83.5t184.5 30q124 0 237 -56t189 -155l-175 -154q-29 42 -64 72t-71 45.5t-68 22t-64 6.5q-94 0 -151 -50.5t-55 -123.5q1 -22 6 -40t19.5 -36t27 -30.5t41 -32t47.5 -31.5t61 -36q9 -5 13 -8q28 -16 72 -40.5t72 -40t65.5 -40t61.5 -44.5 t50 -48.5t41 -57.5t24.5 -67t9.5 -81q0 -112 -39 -201.5t-107.5 -145t-157.5 -85t-192 -29.5q-157 0 -287.5 66.5t-201.5 178.5zM415 1908h217l72 -155h8l111 155h225l-247 -300h-213z" />
<glyph unicode="&#x161;" horiz-adv-x="875" d="M27 155l148 146q42 -57 100 -89t119 -32q67 0 112 26.5t45 72.5q0 35 -33.5 58.5t-120.5 62.5q-19 8 -29 13q-44 20 -79 41t-67.5 48t-54 57.5t-34 68.5t-12.5 81q0 67 27.5 124.5t74.5 97t110.5 62t133.5 22.5q98 0 191 -36t157 -107l-149 -151q-41 52 -95 76t-106 24 t-84 -25.5t-32 -68.5q0 -40 41 -72.5t121 -71.5q3 -1 9 -4q33 -16 50.5 -25t49 -27t49.5 -32.5t41.5 -36.5t36 -43.5t22 -49.5t9.5 -59q2 -155 -103 -238.5t-281 -83.5q-112 0 -213.5 47t-153.5 124zM242 1435h217l72 -155h8l111 155h225l-247 -300h-213z" />
<glyph unicode="&#x162;" horiz-adv-x="1118" d="M159 1238l26 217h982l-26 -217h-371l-152 -1238h-94l-41 -63l3 -3q152 -8 152 -134q0 -78 -66.5 -133.5t-169.5 -55.5q-57 0 -116 13l6 109q29 -12 88 -12q49 0 77.5 20t28.5 56q0 29 -34 42.5t-106 13.5l4 73l41 74h-15l153 1238h-370z" />
<glyph unicode="&#x163;" horiz-adv-x="692" d="M86 808l23 191h107l39 312l229 45l-44 -357h245l-23 -191h-245l-60 -491q-14 -118 66 -118q54 0 144 50l32 -195q-54 -33 -120.5 -51t-128.5 -19l-31 -47l3 -3q152 -8 152 -134q0 -78 -66.5 -133.5t-169.5 -55.5q-58 0 -116 13l6 109q29 -12 88 -12q49 0 77.5 20t28.5 56 q0 29 -34 42.5t-106 13.5l4 73l46 82q-64 32 -90.5 101.5t-14.5 167.5l65 531h-106z" />
<glyph unicode="&#x16a;" horiz-adv-x="1392" d="M172 497q0 55 8 124l103 834h241l-103 -834q-7 -56 -7 -113q0 -295 236 -295q145 0 234 92t114 298l104 852h242l-105 -853q-39 -317 -186.5 -467.5t-413.5 -150.5q-119 0 -209 36.5t-146 104.5t-84 161.5t-28 210.5zM572 1671l23 189h561l-23 -189h-561z" />
<glyph unicode="&#x16b;" horiz-adv-x="1111" d="M113 386l75 613h224l-71 -594q-15 -119 10.5 -167.5t94.5 -48.5q42 0 92.5 31t96.5 83.5t81.5 129.5t45.5 160l50 406h224l-123 -999h-224l22 179h-4q-128 -195 -330 -195q-158 0 -224 96t-40 306zM364 1198l23 189h561l-23 -189h-561z" />
<glyph unicode="&#x172;" horiz-adv-x="1392" d="M172 497q0 55 8 124l103 834h241l-103 -834q-7 -56 -7 -113q0 -295 236 -295q145 0 234 92t114 298l104 852h242l-105 -853q-31 -256 -133 -402.5t-278 -193.5q-84 -27 -141.5 -79t-57.5 -105q0 -29 15.5 -45.5t39.5 -16.5q44 0 84 17l3 -139q-53 -24 -141 -24 q-47 0 -82.5 10.5t-58.5 30.5t-34.5 48.5t-11.5 65.5q0 57 32 114.5t84 101.5v4q-98 11 -172.5 52.5t-121.5 108t-70 153.5t-23 194z" />
<glyph unicode="&#x173;" horiz-adv-x="1111" d="M113 386l75 613h224l-71 -594q-15 -119 10.5 -167.5t94.5 -48.5q42 0 92.5 31t96.5 83.5t81.5 129.5t45.5 160l50 406h224l-123 -999h-7q-54 -11 -98 -39.5t-67.5 -65.5t-23.5 -73q0 -29 15 -45.5t41 -16.5q51 0 83 17l3 -139q-52 -24 -141 -24q-93 0 -140 40t-47 115 q0 70 45.5 138t114.5 110l20 162h-4q-128 -195 -330 -195q-158 0 -224 96t-40 306z" />
<glyph unicode="&#x17d;" horiz-adv-x="1208" d="M61 0l22 190l773 1041l1 7h-619l27 217h929l-20 -187l-787 -1043l-1 -8h659l-28 -217h-956zM460 1908h217l72 -155h8l111 155h225l-247 -300h-213z" />
<glyph unicode="&#x17e;" horiz-adv-x="955" d="M24 0l18 158l529 646l1 4h-417l24 191h727l-17 -155l-539 -650v-4q288 -5 479 -65l-62 -185q-58 18 -133.5 30t-134 18t-161.5 9t-149.5 3h-164.5zM278 1435h217l72 -155h8l111 155h225l-247 -300h-213z" />
<glyph unicode="&#x218;" horiz-adv-x="1155" d="M57 229l179 164q28 -59 76 -101.5t104 -63.5t115 -21q111 0 184.5 60t72.5 145q0 26 -9.5 47.5t-21.5 37t-39 34.5t-47 30.5t-62.5 35t-69.5 39.5q-13 8 -41 24q-34 20 -52 30.5t-50.5 31t-50 34.5t-44 36t-41.5 40.5t-32.5 44.5t-26.5 51t-15.5 56.5t-6.5 64.5 q0 95 37.5 175t101.5 133.5t150.5 83.5t184.5 30q124 0 237 -56t189 -155l-175 -154q-29 42 -64 72t-71 45.5t-68 22t-64 6.5q-94 0 -151 -50.5t-55 -123.5q1 -22 6 -40t19.5 -36t27 -30.5t41 -32t47.5 -31.5t61 -36q9 -5 13 -8q28 -16 72 -40.5t72 -40t65.5 -40t61.5 -44.5 t50 -48.5t41 -57.5t24.5 -67t9.5 -81q0 -112 -39 -201.5t-107.5 -145t-157.5 -85t-192 -29.5q-157 0 -287.5 66.5t-201.5 178.5zM299 -315q65 25 92.5 59.5t27.5 98.5q0 18 -3 49h200q1 -9 1 -46q0 -125 -73.5 -203t-211.5 -92z" />
<glyph unicode="&#x219;" horiz-adv-x="875" d="M27 155l148 146q28 -38 63.5 -65t75 -41.5t80.5 -14.5q67 0 112 26.5t45 72.5q0 36 -33.5 59t-120.5 62q-19 8 -29 13q-44 20 -79 41t-67.5 48t-54 57.5t-34 68.5t-12.5 81q0 67 27.5 124.5t74.5 97t110.5 62t133.5 22.5q98 0 191 -36t157 -107l-149 -151q-41 52 -95 76 t-106 24t-84 -25.5t-32 -68.5q0 -21 12 -40.5t36 -37.5t49.5 -32.5t64.5 -33.5q3 -1 9 -4q33 -16 50.5 -25t49 -27t49.5 -32.5t41.5 -36.5t36 -43.5t22 -49.5t9.5 -59q2 -155 -103 -238.5t-281 -83.5q-112 0 -213.5 47t-153.5 124zM141 -315q66 25 93 59.5t27 98.5 q0 17 -3 49h200q1 -9 1 -46q0 -125 -73.5 -203t-211.5 -92z" />
<glyph unicode="&#x21a;" horiz-adv-x="1118" d="M159 1238l26 217h982l-26 -217h-371l-152 -1238h-242l153 1238h-370zM267 -315q66 25 93 59.5t27 98.5q0 17 -3 49h200q1 -9 1 -46q0 -125 -73.5 -203t-211.5 -92z" />
<glyph unicode="&#x21b;" horiz-adv-x="692" d="M86 808l23 191h107l39 312l229 45l-44 -357h245l-23 -191h-245l-60 -491q-14 -118 66 -118q54 0 144 50l32 -195q-37 -22 -81 -38t-87.5 -24t-84.5 -8q-125 0 -180 79t-39 214l65 531h-106zM103 -315q65 25 92.5 59.5t27.5 98.5q0 17 -3 49h200q1 -9 1 -46 q0 -125 -73.5 -203t-211.5 -92z" />
<glyph unicode="&#x2c6;" horiz-adv-x="877" d="M193 1098l241 300h214l178 -300h-218l-73 156h-6l-112 -156h-224z" />
<glyph unicode="&#x2da;" horiz-adv-x="902" d="M330 1261q0 92 62 153.5t156 61.5q91 0 151.5 -59.5t60.5 -148.5q0 -94 -62.5 -156t-156.5 -62q-90 0 -150.5 60.5t-60.5 150.5zM466 1263q0 -33 22.5 -55.5t55.5 -22.5q34 0 57.5 23.5t23.5 57.5q0 32 -23 54.5t-56 22.5q-34 0 -57 -23.5t-23 -56.5z" />
<glyph unicode="&#x2dc;" horiz-adv-x="921" d="M179 1170q42 102 103.5 160t136.5 58q28 0 54 -7.5t36 -12.5t34.5 -22.5t25.5 -18.5q4 -3 19 -13.5t21 -14t17.5 -10t20.5 -8.5t18 -2q36 0 68.5 29.5t55.5 80.5l138 -54q-42 -113 -103.5 -175t-133.5 -62q-17 0 -35 3.5t-29.5 7.5t-28.5 13.5t-22.5 13t-22 15.5 t-17.5 13q-22 16 -34 23.5t-29 14.5t-31 7q-37 0 -69 -29.5t-55 -81.5z" />
<glyph unicode="&#x2000;" horiz-adv-x="961" />
<glyph unicode="&#x2001;" horiz-adv-x="1922" />
<glyph unicode="&#x2002;" horiz-adv-x="961" />
<glyph unicode="&#x2003;" horiz-adv-x="1922" />
<glyph unicode="&#x2004;" horiz-adv-x="640" />
<glyph unicode="&#x2005;" horiz-adv-x="480" />
<glyph unicode="&#x2006;" horiz-adv-x="320" />
<glyph unicode="&#x2007;" horiz-adv-x="320" />
<glyph unicode="&#x2008;" horiz-adv-x="240" />
<glyph unicode="&#x2009;" horiz-adv-x="384" />
<glyph unicode="&#x200a;" horiz-adv-x="106" />
<glyph unicode="&#x2010;" d="M117 523l27 219h559l-28 -219h-558z" />
<glyph unicode="&#x2011;" d="M117 523l27 219h559l-28 -219h-558z" />
<glyph unicode="&#x2012;" d="M117 523l27 219h559l-28 -219h-558z" />
<glyph unicode="&#x2013;" horiz-adv-x="1185" d="M116 510l24 200h957l-25 -200h-956z" />
<glyph unicode="&#x2014;" horiz-adv-x="2140" d="M116 510l24 200h1912l-25 -200h-1911z" />
<glyph unicode="&#x2018;" horiz-adv-x="431" d="M117 935l182 517h179l-121 -517h-240z" />
<glyph unicode="&#x2019;" horiz-adv-x="433" d="M125 938l121 517h240l-182 -517h-179z" />
<glyph unicode="&#x201a;" horiz-adv-x="482" d="M-32 -270l121 516h238l-193 -516h-166z" />
<glyph unicode="&#x201c;" horiz-adv-x="771" d="M118 936l182 517h179l-121 -517h-240zM456 936l182 517h179l-121 -517h-240z" />
<glyph unicode="&#x201d;" horiz-adv-x="772" d="M125 938l121 517h240l-182 -517h-179zM463 938l121 517h240l-182 -517h-179z" />
<glyph unicode="&#x201e;" horiz-adv-x="822" d="M-19 -159l121 517h240l-182 -517h-179zM319 -159l121 517h240l-182 -517h-179z" />
<glyph unicode="&#x2022;" horiz-adv-x="887" d="M236 644q0 96 66 161t165 65q95 0 158 -62.5t63 -156.5q0 -65 -30.5 -118t-83 -83t-117.5 -30q-95 0 -158 64t-63 160z" />
<glyph unicode="&#x2026;" horiz-adv-x="2048" d="M148 130q0 66 44 109.5t109 43.5q62 0 104 -42t42 -106q0 -65 -43.5 -108t-108.5 -43q-63 0 -105 42t-42 104zM831 130q0 66 44 109.5t109 43.5q41 0 74.5 -19t52.5 -53t19 -76q0 -65 -43.5 -108t-108.5 -43q-63 0 -105 42t-42 104zM1514 130q0 66 44 109.5t109 43.5 q62 0 104 -42t42 -106q0 -65 -43.5 -108t-108.5 -43q-63 0 -105 42t-42 104z" />
<glyph unicode="&#x202f;" horiz-adv-x="384" />
<glyph unicode="&#x2039;" horiz-adv-x="607" d="M97 504l283 445h215l-279 -445l170 -437h-216z" />
<glyph unicode="&#x203a;" horiz-adv-x="596" d="M13 67l277 437l-172 445h215l176 -445l-280 -437h-216z" />
<glyph unicode="&#x205f;" horiz-adv-x="480" />
<glyph unicode="&#x20ac;" horiz-adv-x="1128" d="M22 480l18 140h103q1 52 12 126h-100l17 140h117q20 62 47.5 118t62.5 105.5t77 91.5t91 75t102.5 56t114.5 35t126 12q45 0 90.5 -7.5t89.5 -22.5t86 -38.5t79 -54.5l-164 -165q-74 73 -180 73q-124 0 -217 -75.5t-147 -202.5h432l-17 -140h-459q-13 -68 -16 -126h460 l-18 -140h-436q19 -134 91.5 -206t180.5 -72q128 0 235 84l125 -181q-81 -58 -170 -88.5t-199 -30.5q-79 0 -149.5 19.5t-132 59t-108 97.5t-78 139t-41.5 179h-125z" />
<glyph unicode="&#x2122;" horiz-adv-x="1300" d="M150 1325l16 130h456l-16 -130h-156l-65 -533h-143l65 533h-157zM620 792l81 663h149l113 -366l204 366h151l-81 -663h-142l49 396l-151 -269h-94l-87 271l-50 -398h-142z" />
<glyph unicode="&#x25fc;" horiz-adv-x="1000" d="M0 0v1000h1000v-1000h-1000z" />
</font>
</defs>
</svg>
